<svg version="1" xmlns="http://www.w3.org/2000/svg" width="682.667" height="682.667" viewBox="0 0 512.000000 512.000000"><path d="M428.8 138.5c-.2.1-4 .5-8.5.9-4.5.3-8.8.8-9.5 1.1-.7.2-2.6.6-4.3.9-6.4 1-20.2 5.8-27.9 9.7-31.2 15.8-51.8 46.8-56.5 84.9-1.2 9.5-1.1 30.4.1 39.5 6.5 49.9 34.7 80.8 83.3 91.7 10.4 2.3 42.6 3.4 51 1.7 2.8-.5 6.6-1.2 8.5-1.5 5.5-.9 21.1-6.8 25.7-9.7 14.2-9 15.9-28.5 3.8-43.3l-3.5-4.3-8.8 4.4c-10.8 5.4-18.8 8.1-27.2 9.1-28 3.2-52-5.6-63.8-23.5-5-7.5-6.8-11.6-9-20.8-2.5-10.2-2.6-11.4-2.5-26.8.1-23.2 5.4-38.6 17.8-51.1 11.3-11.5 24.4-16.5 43-16.6 14.7-.1 24.8 2.8 39.8 11.3 7.9 4.5 8.5 4.4 14.2-2.5 11.9-14.6 8.2-32.2-9-43.1-11.2-7.1-22.9-10.2-41.5-11.1-5.8-.3-11.5-.6-12.7-.8-1.3-.2-2.4-.2-2.5-.1zM28.9 144.7c-5.6 1.4-16.7 7.2-18.8 9.7-.7.9-1 2.7-.7 4.3.3 1.5.8 5 1.1 7.8.3 2.7.8 6.1 1 7.5.3 1.4.7 4.3 1.1 6.5 1.5 10.8 4 25.6 5.4 33 .6 2.7 3.1 15.3 5.6 28 2.5 12.6 4.9 24.3 5.4 26 .5 1.6 1.1 4.3 1.4 6 .6 4.4 7.2 31.5 10.2 42.5 1.4 5.2 3 10.8 3.4 12.5 2.7 9.7 4 13.6 6.3 18.8 1.5 3.2 3.2 6.3 3.9 7 13.7 13.3 46.9 16.3 68.3 6.2 2.9-1.4 5.7-3.1 6.3-3.8.5-.6 2.3-5.9 4-11.7 3.5-11.8 17.3-64.4 19.2-73.3.7-3.1 1.6-5.7 1.9-5.7.4 0 4.6 13.8 9.4 30.7 11.2 39.5 16.4 55.6 18.9 58.8 4.7 5.9 18.5 10.5 33.2 10.9 15 .5 34.8-4.3 40.3-9.8 2.8-2.8 13.3-35.8 15.9-50.1.2-1.1 1.5-7 2.8-13 1.4-6.1 2.8-12.6 3.1-14.5.3-1.9 1-5.1 1.5-7 1.1-4.1 8.7-46.5 9.5-53 .3-2.5 1-7 1.5-10s1.2-8.2 1.6-11.5c.3-3.3.8-6.7.9-7.6.7-3.4 1.8-19.7 1.7-24.4 0-2.8-.8-6.6-1.6-8.7-5.5-13.1-29.9-17.5-48.7-8.7l-4.6 2.1-1.3 11.1c-2.1 18.3-2.7 23.2-4.4 35.2-.3 2.2-.8 5.8-1 8-.8 6.1-1.7 12.7-2.1 15.5-.3 1.4-.7 4.5-.9 7-.3 2.5-1.7 12.8-3.1 23-1.4 10.2-2.8 20.3-3.1 22.5-3 23-6.4 42.5-7.4 42.5-.6 0-2.6-6.9-4.5-15-.7-3.3-8-29.2-13.4-47.5-1.6-5.5-3.1-10.9-3.4-12-4.9-18.3-10-34.4-11.9-37.1-4.9-7.1-16.1-10.5-32.8-10-9 .3-13 .9-18.5 2.8l-7 2.5-3.6 15.9c-2 8.7-6.9 28.5-10.9 43.9-4 15.4-8.8 34.3-10.7 42-3.5 14.2-3.9 15.3-4.9 14.2-.6-.6-3.8-16.2-4.8-23.7-.3-2.5-.8-5.5-1-6.6-.5-2.3-1.3-7.2-2.2-13.1-.3-2.1-.8-5.2-1-6.8-3.7-22.4-5.4-32.6-5.8-35.5-4.5-29.8-10.8-65.5-12.4-69.6-3-7.6-9.6-13-18.2-14.9-5.9-1.3-14.5-1.2-20.1.2z"/></svg>